<svg id="visual" viewBox="0 0 1920 1080" width="1920" height="1080" xmlns="http://www.w3.org/2000/svg" xmlns:xlink="http://www.w3.org/1999/xlink" version="1.1"><rect x="0" y="0" width="1920" height="1080" fill="#cee9cd"></rect><defs><linearGradient id="grad1_0" x1="43.8%" y1="0%" x2="100%" y2="100%"><stop offset="14.444444444444446%" stop-color="#cee9cd" stop-opacity="1"></stop><stop offset="85.55555555555554%" stop-color="#cee9cd" stop-opacity="1"></stop></linearGradient></defs><defs><linearGradient id="grad2_0" x1="0%" y1="0%" x2="56.3%" y2="100%"><stop offset="14.444444444444446%" stop-color="#cee9cd" stop-opacity="1"></stop><stop offset="85.55555555555554%" stop-color="#cee9cd" stop-opacity="1"></stop></linearGradient></defs><g transform="translate(1920, 0)"><path d="M0 432C-17 423.8 -33.9 415.5 -49.2 405C-64.4 394.5 -77.9 381.7 -92.9 376.7C-107.8 371.7 -124.3 374.5 -143.6 378.7C-163 382.9 -185.3 388.5 -199.4 379.9C-213.5 371.2 -219.3 348.4 -231.8 335.8C-244.2 323.2 -263.1 320.9 -274.5 309.9C-285.9 298.8 -289.7 279 -297.9 263.9C-306.1 248.9 -318.6 238.6 -327.5 226.1C-336.5 213.6 -341.9 198.9 -357.7 187.7C-373.6 176.6 -399.9 169.1 -403.9 153.2C-408 137.3 -389.8 113 -381.6 94.1C-373.4 75.1 -375.1 61.5 -385.2 46.8C-395.2 32 -413.6 16 -432 0L0 0Z" fill="#70be6d"></path></g><g transform="translate(0, 1080)"><path d="M0 -432C16.1 -416.1 32.2 -400.2 47.4 -390.1C62.5 -380.1 76.7 -375.9 92.9 -376.7C109 -377.5 127 -383.3 147.2 -388C167.4 -392.7 189.7 -396.4 200.8 -382.5C211.8 -368.7 211.4 -337.3 225.5 -326.7C239.6 -316.2 268.2 -326.4 281.8 -318.1C295.4 -309.9 294.1 -283.2 297.9 -263.9C301.7 -244.7 310.8 -232.9 320.1 -221C329.5 -209.1 339.2 -197.1 355.1 -186.4C370.9 -175.6 393 -166.2 395.5 -150C398 -133.8 381 -111 378.7 -93.3C376.3 -75.7 388.7 -63.3 400.1 -48.6C411.4 -33.9 421.7 -16.9 432 0L0 0Z" fill="#70be6d"></path></g></svg>